<svg xmlns="http://www.w3.org/2000/svg" width="51.023px" height="45.354px" viewBox="0 0 51.023 45.354" aria-hidden="true">
  <title>GitHub</title>
    <path fill-rule="evenodd" clip-rule="evenodd" fill="#FFFFFF" d="M25.51,4.675c-10.192,0-18.456,8.263-18.456,18.457
      c0,8.152,5.288,15.07,12.622,17.512c0.923,0.17,1.26-0.402,1.26-0.891c0-0.438-0.016-1.598-0.025-3.139
      c-5.134,1.115-6.217-2.475-6.217-2.475c-0.839-2.131-2.049-2.699-2.049-2.699c-1.676-1.145,0.126-1.121,0.126-1.121
      c1.852,0.131,2.827,1.902,2.827,1.902c1.646,2.82,4.32,2.006,5.372,1.533c0.168-1.193,0.644-2.006,1.172-2.467
      c-4.099-0.467-8.407-2.051-8.407-9.123c0-2.016,0.719-3.662,1.9-4.952c-0.19-0.467-0.823-2.343,0.181-4.884
      c0,0,1.55-0.496,5.075,1.892c1.472-0.409,3.051-0.614,4.622-0.621c1.566,0.007,3.144,0.212,4.619,0.621
      c3.523-2.388,5.07-1.892,5.07-1.892c1.008,2.541,0.375,4.417,0.184,4.884c1.184,1.29,1.896,2.937,1.896,4.952
      c0,7.09-4.314,8.65-8.426,9.107c0.664,0.57,1.254,1.697,1.254,3.418c0,2.467-0.023,4.459-0.023,5.063
      c0,0.494,0.332,1.068,1.27,0.889c7.326-2.445,12.609-9.359,12.609-17.51C43.965,12.938,35.701,4.675,25.51,4.675z"></path>
</svg>
