<svg xmlns="http://www.w3.org/2000/svg" width="51.023px" height="45.354px" viewBox="0 0 51.023 45.354" aria-hidden="true">
  <title>LinkedIn</title>
    <path fill="#FFFFFF" d="M8.072,16.628h7.479v24.047H8.072V16.628z M11.812,4.675c2.391,0,4.334,1.941,4.334,4.333
      c0,2.393-1.943,4.335-4.334,4.335c-2.398,0-4.336-1.942-4.336-4.335C7.476,6.616,9.412,4.675,11.812,4.675"></path>
    <path fill="#FFFFFF" d="M20.238,16.628h7.167v3.288h0.102c0.996-1.891,3.436-3.884,7.07-3.884c7.566,0,8.967,4.979,8.967,11.456
      v13.188h-7.475V28.983c0-2.789-0.045-6.377-3.885-6.377c-3.887,0-4.482,3.036-4.482,6.174v11.895h-7.463V16.628L20.238,16.628z"></path>
</svg>
