<svg xmlns="http://www.w3.org/2000/svg" width="51.023px" height="45.354px" viewBox="0 0 51.023 45.354" aria-hidden="true">
  <title>Twitter</title>
    <path fill="#FFFFFF" d="M47.674,8.958c-1.746,0.749-3.49,1.215-5.232,1.406c1.967-1.185,3.301-2.853,3.996-5.006
      c-1.808,1.063-3.725,1.799-5.771,2.194c-1.799-1.913-4.012-2.875-6.639-2.875c-2.516,0-4.652,0.885-6.432,2.655
      c-1.764,1.774-2.653,3.917-2.653,6.425c0,0.679,0.073,1.37,0.224,2.083c-3.709-0.189-7.188-1.12-10.447-2.798
      c-3.251-1.677-6.012-3.916-8.277-6.708C5.616,7.741,5.2,9.271,5.2,10.919c0,1.559,0.364,2.999,1.098,4.329
      c0.732,1.331,1.71,2.407,2.959,3.233c-1.467-0.056-2.834-0.44-4.11-1.152v0.113c0,2.189,0.69,4.115,2.063,5.778
      c1.384,1.656,3.117,2.703,5.224,3.134c-0.79,0.201-1.59,0.311-2.393,0.311c-0.522,0-1.101-0.049-1.714-0.145
      c0.581,1.824,1.649,3.316,3.207,4.482c1.561,1.178,3.316,1.775,5.285,1.824c-3.301,2.58-7.059,3.877-11.276,3.877
      c-0.807,0-1.539-0.033-2.193-0.121c4.217,2.73,8.868,4.094,13.944,4.094c3.231,0,6.257-0.512,9.091-1.531
      c2.829-1.021,5.249-2.389,7.251-4.107c2.008-1.713,3.736-3.682,5.191-5.914c1.453-2.238,2.535-4.568,3.249-6.989
      c0.712-2.435,1.073-4.862,1.073-7.298c0-0.529-0.014-0.921-0.032-1.188C44.901,12.355,46.419,10.791,47.674,8.958z"></path>
</svg>
